# xmcd
#
# Track frame offsets: 
#        150
#        14625
#        37801
#        61201
#        78957
#        93120
#        107174
#        121923
#        137678
#        158344
#        175011
#        188553
#        203704
#        216454
#
# Disc length: 2998 seconds
#
# Revision: 1
# Processed by: cddbd v1.5.2PL0 Copyright (c) Steve Scherf et al.
# Submitted via: ExactAudioCopy v0.99pb4
#
DISCID=ab0bb40e
DTITLE=Ahmad Jamal - Live at The  Spotlite Club 1958 - Disc 2
DYEAR=1958
DGENRE=Jazz
TTITLE0=Seleritus
TTITLE1=Let's Fall In Love
TTITLE2=This Can't be Love
TTITLE3=Ole Devil Moon
TTITLE4=Ivy
TTITLE5=Tater Pie
TTITLE6=Aki and Ukthay (Brother and Sister)
TTITLE7=You Don't Know What Love Is
TTITLE8=I Didn't Know What Time It Was
TTITLE9=So Beats My Heart For You
TTITLE10=Our Delight
TTITLE11=Soft Winds
TTITLE12=Secret Love
TTITLE13=Taking a Chance on Love
EXTD=YEAR: 1958
EXTT0=
EXTT1=
EXTT2=
EXTT3=
EXTT4=
EXTT5=
EXTT6=
EXTT7=
EXTT8=
EXTT9=
EXTT10=
EXTT11=
EXTT12=
EXTT13=
PLAYORDER=
